<svg xmlns="http://www.w3.org/2000/svg" viewBox="0 0 252.54 91.76">
	<g id="iEDA">
		<g class="content-i" style="fill: var(--cf-gray);">
			<path d="M.56,78.56q.31-2,1-5.2L7.76,44.21c.07-.34.12-.68.17-1a5.05,5.05,0,0,0,0-.94c-.09-1.71-.7-2.74-1.8-3.09a21.21,21.21,0,0,0-6-.47L0,35.33q3.59-.46,10.38-1.63c4.53-.79,7.74-1.42,9.62-1.91l5.39-1.37-7.82,37c-.65,3.16-1.08,5.36-1.31,6.58A34.17,34.17,0,0,0,15.49,80c0,.91.29,1.49.73,1.74a2.41,2.41,0,0,0,1.39.33c1.3-.08,2.84-1.27,4.63-3.59a49.52,49.52,0,0,0,4.66-7.22l2.92,1.65Q24.11,82.45,21,85.83q-5.13,5.55-11.31,5.91A10,10,0,0,1,3.25,90c-1.93-1.33-3-3.47-3.16-6.42A25.7,25.7,0,0,1,.56,78.56Z"/>
			<path d="M26.4,4.25a8.28,8.28,0,0,1,2.85,5.91,8.38,8.38,0,0,1-2.14,6.23,8.19,8.19,0,0,1-5.91,2.87A8.28,8.28,0,0,1,15,17.09a8.34,8.34,0,0,1-2.88-5.94A8.21,8.21,0,0,1,14.27,5a8.34,8.34,0,0,1,5.94-2.84A8.22,8.22,0,0,1,26.4,4.25Z"/>
		</g>
		<g class="content-EDA" style="fill: var(--cf-gray-light);">
			<polygon points="40.35 90 55.98 1.25 69.04 1.25 53.41 90 40.35 90"/>
			<polygon points="40.35 90 42.48 78.13 101.1 78.13 99.04 90 40.35 90"/>
			<polygon points="47.16 51.5 49.23 39.63 96.67 39.63 94.6 51.5 47.16 51.5"/>
			<polygon points="53.91 13.13 55.98 1.25 114.67 1.25 112.6 13.13 53.91 13.13"/>
			<polygon points="114.1 90 129.73 1.25 142.73 1.25 127.1 90 114.1 90"/>
			<path d="M125.41,90l2.13-11.88h4.94q12.12,0,20.75-4.78a32,32,0,0,0,13.22-13.81q4.59-9,4.59-21.72,0-12.24-7.5-19.09t-20.88-6.84a67.3,67.3,0,0,0-12.93,1.24V1.25A80.56,80.56,0,0,1,144.23,0q18.93,0,29.56,9.69t10.62,27q0,16.74-6.5,28.69a43.88,43.88,0,0,1-18.68,18.28Q147,90,129.85,90Z"/>
			<path d="M183.16,90,222.54,1.19H242.6q1.64,7.07,3.1,16T248.38,36q1.23,9.81,2.13,19.59T252,74.22q.53,8.85.59,15.78H239.29q.06-5.75-.34-13.56t-1.13-16.56q-.72-8.76-1.69-17.54t-2-16.65q-1-7.87-2-13.75H231L197,90Z"/>
			<polygon points="199.6 68.38 202.16 56.5 247.16 56.5 244.6 68.38 199.6 68.38"/>
		</g>
	</g>
</svg>